<?xml version="1.0" encoding="UTF-8"?>
<svg width="60" height="60" xmlns="http://www.w3.org/2000/svg">
	<defs>
		<linearGradient id="grad" x2="0" y2="1">
			<stop stop-color="#cf009f" offset="0" />
			<stop stop-color="#e22690" offset="1" />
		</linearGradient>
	</defs>
	<g>
		<circle cx="30" cy="30" r="29" fill="url(#grad)"/>
		<path fill="#ffffff" stroke="none" d="M 34,11.8 C 33.6,16 33.3,33.5 33.7,41 C 28,36.6 20.4,38.7 20.5,42.8 C 20.6,47.3 33.6,49.6 34.9,43.6 C 35.6,33.9 35.5,10.5 34,11.8 z" />
		<path fill="#f7a000" stroke="none" d="M 26.3,17 C 26,17 25.9,17 25.6,17.4 C 21.5,21.4 18,24.9 9.9,32.7 C 9.4,33.2 9.6,35.5 10.2,36.1 C 12.9,38.7 15.5,41.6 17.8,43.8 C 19.1,45.1 21,44.8 21.9,43.9 C 25.8,40.1 34,31.9 36.6,29.5 C 36.9,29.3 37,29.2 37,28.6 C 37,25.6 37.2,22.1 37,19.3 C 37,18.4 35.6,17.2 34.6,17.2 C 30.7,17.1 29.1,17.1 26.6,17 C 26.5,17 26.4,17 26.3,17 z M 32.2,20.2 C 33.4,20.2 34.4,21.2 34.4,22.3 C 34.4,23.5 33.4,24.4 32.2,24.4 C 31,24.4 30.1,23.5 30.1,22.3 C 30.1,21.2 31,20.2 32.2,20.2 z" />
		<path fill="none" stroke="#f70" stroke-width="1px" stroke-linecap="round" d="M 34.4,12.2 C 38.4,16.2 38,17 34,21" />
	</g>
</svg>