<?xml version="1.0" standalone="no"?>
<!DOCTYPE svg PUBLIC "-//W3C//DTD SVG 20010904//EN"
 "http://www.w3.org/TR/2001/REC-SVG-20010904/DTD/svg10.dtd">
<svg version="1.0" xmlns="http://www.w3.org/2000/svg"
 width="700.000000pt" height="700.000000pt" viewBox="0 0 700.000000 700.000000"
 preserveAspectRatio="xMidYMid meet">
<metadata>
Created by potrace 1.11, written by Peter Selinger 2001-2013
</metadata>
<g transform="translate(0.000000,700.000000) scale(0.100000,-0.100000)"
fill="#000000" stroke="none">
<path d="M3265 6874 c-353 -35 -605 -86 -859 -174 -1402 -483 -2327 -1816
-2283 -3290 9 -296 46 -543 122 -822 268 -971 989 -1795 1920 -2193 306 -131
628 -215 980 -257 143 -17 567 -17 710 0 840 100 1557 459 2122 1064 693 742
1014 1774 867 2788 -136 934 -657 1768 -1439 2302 -447 305 -927 487 -1485
563 -109 15 -563 28 -655 19z m860 -1333 c167 -172 243 -287 267 -402 15 -72
-7 -167 -58 -253 -33 -56 -35 -62 -25 -105 16 -73 22 -414 14 -814 l-8 -369
-98 -91 -98 -92 1 -178 c0 -229 -18 -805 -34 -1107 -11 -194 -17 -245 -35
-290 -61 -160 -225 -278 -451 -327 -128 -27 -408 -24 -550 6 -222 47 -414 133
-530 239 l-61 54 -44 -12 c-99 -28 -222 -1 -311 67 -17 13 -236 231 -486 486
l-454 462 -19 65 c-24 82 -27 242 -5 281 8 14 323 325 700 691 377 366 801
779 943 918 l259 253 101 -6 c56 -4 256 -10 444 -13 l341 -7 6 74 c3 41 10
180 17 309 6 129 13 238 16 243 2 4 19 7 38 7 30 0 45 -11 120 -89z"/>
<path d="M4053 5420 c3 -19 13 -126 23 -237 12 -131 22 -203 29 -203 6 0 32
-13 58 -30 26 -16 51 -30 56 -30 5 0 20 26 35 59 35 79 34 138 -2 216 -28 59
-124 186 -177 235 l-28 25 6 -35z"/>
<path d="M3655 4616 c-103 -47 -158 -155 -136 -265 21 -102 90 -172 189 -191
79 -14 191 16 206 57 4 10 6 98 5 196 l-3 177 -50 25 c-66 33 -142 34 -211 1z"/>
<path d="M3545 2853 c-325 -319 -357 -353 -330 -353 56 0 199 -30 299 -61 113
-37 263 -111 355 -176 l63 -46 -7 109 c-4 60 -11 283 -14 495 l-6 386 -360
-354z"/>
</g>
</svg>
